#!OML:ASF H:\ManfredETheater\Project 1\Capture day 1\Session 1\subject.ASF
:FULLY-SPECIFIED
:DEGREES
1431
root 3.31627 17.9695 -3.94403 5.96166 5.2656 0.040201
lowerback 2.52528 -0.773402 -1.71224
upperback -3.19567 -1.07093 1.05391
thorax -4.66435 -0.45252 2.1193
lowerneck -20.7554 -3.84295 -5.10341
upperneck 9.78854 -4.54924 5.34319
head 6.58 -1.92089 2.03121
rclavicle 4.04403e-015 -9.93923e-016
rhumerus -20.5035 -26.9269 1.51406
rradius 23.8616
rwrist 5.87625
rhand -19.5741 -18.3596
rfingers 7.12502
rthumb 6.75096 -48.232
lclavicle 4.04403e-015 -9.93923e-016
lhumerus -18.3138 22.8999 6.32946
lradius 23.3432
lwrist -19.3652
lhand -15.5005 16.9479
lfingers 7.12502
lthumb 10.682 46.6563
rfemur -13.4893 -3.34392 20.3552
rtibia 32.779
rfoot -21.1938 -15.1396
rtoes 11.7041
lfemur -16.2433 -5.36543 -16.9568
ltibia 34.6871
lfoot -19.5894 4.77814
ltoes -2.18997
1432
root 3.31714 17.9692 -3.94363 5.95897 5.27529 0.0401536
lowerback 2.4814 -0.771102 -1.70357
upperback -3.18613 -1.06695 1.04978
thorax -4.62981 -0.451452 2.10894
lowerneck -20.7496 -3.83968 -5.10628
upperneck 9.77714 -4.54491 5.3502
head 6.5754 -1.91845 2.03455
rclavicle 9.46246e-015 -4.37326e-015
rhumerus -20.4727 -26.9169 1.51962
rradius 23.857
rwrist 5.88209
rhand -19.5738 -18.3661
rfingers 7.12502
rthumb 6.75122 -48.2384
lclavicle 9.46246e-015 -4.37326e-015
lhumerus -18.29 22.887 6.32708
lradius 23.3474
lwrist -19.3382
lhand -15.4948 16.9263
lfingers 7.12502
lthumb 10.6875 46.6345
rfemur -13.4864 -3.33151 20.3546
rtibia 32.7848
rfoot -21.1983 -15.1643
rtoes 11.6954
lfemur -16.2341 -5.36869 -16.9571
ltibia 34.6792
lfoot -19.5994 4.76839
ltoes -2.14969
1433
root 3.31809 17.969 -3.94331 5.95712 5.28718 0.039725
lowerback 2.4386 -0.769671 -1.694
upperback -3.17656 -1.06411 1.04606
thorax -4.5958 -0.450956 2.0986
lowerneck -20.7448 -3.83601 -5.11053
upperneck 9.76619 -4.53985 5.35853
head 6.57114 -1.91558 2.03862
rclavicle 8.54153e-015 -1.27222e-014
rhumerus -20.4389 -26.9007 1.52352
rradius 23.8544
rwrist 5.88313
rhand -19.5719 -18.3744
rfingers 7.12502
rthumb 6.75307 -48.2467
lclavicle 8.54153e-015 -1.27222e-014
lhumerus -18.2639 22.8788 6.32456
lradius 23.3504
lwrist -19.315
lhand -15.4928 16.9179
lfingers 7.12502
lthumb 10.6894 46.6259
rfemur -13.4846 -3.31988 20.3544
rtibia 32.7908
rfoot -21.2031 -15.1903
rtoes 11.6865
lfemur -16.2264 -5.37315 -16.9575
ltibia 34.6713
lfoot -19.6094 4.76049
ltoes -2.11277
1434
root 3.31912 17.9687 -3.94308 5.95539 5.30216 0.0388613
lowerback 2.39871 -0.769483 -1.68348
upperback -3.16739 -1.0629 1.04292
thorax -4.5638 -0.451264 2.0885
lowerneck -20.7416 -3.83184 -5.11542
upperneck 9.75682 -4.53395 5.36706
head 6.56763 -1.91227 2.04295
rclavicle -2.03288e-015 9.93923e-016
rhumerus -20.4027 -26.8735 1.5249
rradius 23.8557
rwrist 5.87347
rhand -19.5692 -18.3848
rfingers 7.12502
rthumb 6.75568 -48.257
lclavicle -2.03288e-015 9.93923e-016
lhumerus -18.2363 22.8743 6.32195
lradius 23.3522
lwrist -19.2978
lhand -15.4949 16.9209
lfingers 7.12502
lthumb 10.6874 46.6291
rfemur -13.4829 -3.31025 20.3544
rtibia 32.7969
rfoot -21.2086 -15.2168
rtoes 11.6767
lfemur -16.2198 -5.37887 -16.9578
ltibia 34.6636
lfoot -19.6198 4.75339
ltoes -2.07849
1435
root 3.32023 17.9684 -3.94293 5.95296 5.32103 0.0378039
lowerback 2.36354 -0.770819 -1.67229
upperback -3.15899 -1.06376 1.0404
thorax -4.5352 -0.452553 2.07889
lowerneck -20.7402 -3.82726 -5.12056
upperneck 9.74962 -4.52741 5.37534
head 6.56505 -1.90866 2.04728
rclavicle -1.98785e-016 2.34566e-014
rhumerus -20.3644 -26.832 1.52344
rradius 23.8621
rwrist 5.84793
rhand -19.5664 -18.3966
rfingers 7.12502
rthumb 6.75841 -48.2687
lclavicle -1.98785e-016 2.34566e-014
lhumerus -18.2081 22.8722 6.31923
lradius 23.3529
lwrist -19.2892
lhand -15.5004 16.9321
lfingers 7.12502
lthumb 10.6821 46.6406
rfemur -13.48 -3.30354 20.3545
rtibia 32.803
rfoot -21.2151 -15.2434
rtoes 11.666
lfemur -16.2132 -5.38584 -16.9582
ltibia 34.6562
lfoot -19.6305 4.74578
ltoes -2.04578
